<svg id="Layer_1" data-name="Layer 1" xmlns="http://www.w3.org/2000/svg" viewBox="0 0 793.5 608.43">
  <defs>
    <style>
      .cls-1 {
        fill: #fff;
      }

      .cls-1, .cls-2, .cls-5 {
        stroke: #000;
        stroke-miterlimit: 10;
      }

      .cls-1, .cls-2 {
        stroke-width: 2px;
      }

      .cls-2, .cls-5 {
        fill: none;
      }

      .cls-3 {
        font-size: 100px;
      }

      .cls-3, .cls-4 {
        font-family: TempusSansITC, Tempus Sans ITC;
      }

      .cls-4 {
        font-size: 80px;
        fill: #9e0000;
      }

      .cls-5 {
        stroke-width: 5px;
      }
    </style>
  </defs>
  <title>hangman</title>
  <circle class="cls-1" cx="250" cy="96" r="54"/>
  <line class="cls-2" x1="250" y1="150" x2="250" y2="247"/>
  <line class="cls-2" x1="250" y1="184" x2="160" y2="159"/>
  <line class="cls-2" x1="250" y1="247" x2="196" y2="304"/>
  <line class="cls-2" x1="250" y1="184" x2="343" y2="162"/>
  <line class="cls-2" x1="250" y1="247" x2="304" y2="296"/>
  <line class="cls-2" x1="250" y1="42" x2="250" y2="1"/>
  <line class="cls-2" x1="250" y1="1" x2="52" y2="1"/>
  <line class="cls-2" x1="52" y1="410" x2="52" y2="1"/>
  <line class="cls-2" x1="166.5" y1="575" x2="274.5" y2="575"/>
  <line class="cls-2" x1="316.5" y1="575" x2="424.5" y2="575"/>
  <line class="cls-2" x1="467.5" y1="574" x2="575.5" y2="574"/>
  <line class="cls-2" x1="609.5" y1="574" x2="717.5" y2="574"/>
  <path class="cls-2" d="M573.5,167.5" transform="translate(-125.5 -111.5)"/>
  <path class="cls-2" d="M496.5,112.5" transform="translate(-125.5 -111.5)"/>
  <line class="cls-2" x1="52" y1="56" x2="121" y2="1"/>
  <line class="cls-2" y1="410" x2="102" y2="410"/>
  <text class="cls-3" transform="translate(192.54 574.35)"><tspan xml:space="preserve">H        N   G</tspan></text>
  <text class="cls-4" transform="translate(474.12 100.61)">L B C O <tspan x="0" y="96" xml:space="preserve">P D  K S </tspan><tspan x="0" y="192">E F</tspan></text>
  <line class="cls-5" x1="469" y1="42" x2="516" y2="117"/>
  <line class="cls-5" x1="579" y1="42" x2="661" y2="115"/>
  <line class="cls-5" x1="654" y1="41" x2="737" y2="115"/>
  <line class="cls-5" x1="468" y1="143" x2="538" y2="204"/>
  <line class="cls-5" x1="529" y1="146" x2="587" y2="198"/>
  <line class="cls-5" x1="638" y1="138" x2="689" y2="208"/>
  <line class="cls-5" x1="704" y1="123" x2="778" y2="220"/>
  <line class="cls-5" x1="521.5" y1="42.5" x2="575.5" y2="96.5"/>
  <line class="cls-5" x1="467.5" y1="232.5" x2="521.5" y2="296.5"/>
  <line class="cls-5" x1="536" y1="247" x2="598" y2="290"/>
</svg>
